<svg width="50" height="50" viewBox="0 0 50 50" fill="none" xmlns="http://www.w3.org/2000/svg">
<rect width="50" height="50" fill="#D9D9D9"/>
<path d="M17 31C17 29.9391 17.4214 28.9217 18.1716 28.1716C18.9217 27.4214 19.9391 27 21 27H29C30.0609 27 31.0783 27.4214 31.8284 28.1716C32.5786 28.9217 33 29.9391 33 31C33 31.5304 32.7893 32.0391 32.4142 32.4142C32.0391 32.7893 31.5304 33 31 33H19C18.4696 33 17.9609 32.7893 17.5858 32.4142C17.2107 32.0391 17 31.5304 17 31Z" stroke="black" stroke-width="2" stroke-linejoin="round"/>
<path d="M25 23C26.6569 23 28 21.6569 28 20C28 18.3431 26.6569 17 25 17C23.3431 17 22 18.3431 22 20C22 21.6569 23.3431 23 25 23Z" stroke="black" stroke-width="2"/>
</svg>
