<svg width="19" height="18" viewBox="0 0 19 18" fill="none" xmlns="http://www.w3.org/2000/svg">
<path d="M7.45996 0.454987C9.18387 0.454987 10.8372 1.13981 12.0562 2.35879C13.2751 3.57778 13.96 5.23108 13.96 6.95499C13.96 8.57499 13.37 10.055 12.39 11.185L18.04 16.835L17.33 17.545L11.68 11.895C10.5053 12.9032 9.00797 13.4567 7.45996 13.455C5.73605 13.455 4.08275 12.7702 2.86377 11.5512C1.64478 10.3322 0.959961 8.67889 0.959961 6.95499C0.959961 5.23108 1.64478 3.57778 2.86377 2.35879C4.08275 1.13981 5.73605 0.454987 7.45996 0.454987ZM7.45996 1.45499C6.00127 1.45499 4.60232 2.03445 3.57087 3.0659C2.53942 4.09735 1.95996 5.4963 1.95996 6.95499C1.95996 8.41368 2.53942 9.81262 3.57087 10.8441C4.60232 11.8755 6.00127 12.455 7.45996 12.455C8.18223 12.455 8.89743 12.3127 9.56472 12.0363C10.232 11.7599 10.8383 11.3548 11.349 10.8441C11.8598 10.3334 12.2649 9.72704 12.5413 9.05975C12.8177 8.39246 12.96 7.67726 12.96 6.95499C12.96 6.23272 12.8177 5.51752 12.5413 4.85023C12.2649 4.18294 11.8598 3.57662 11.349 3.0659C10.8383 2.55518 10.232 2.15005 9.56472 1.87365C8.89743 1.59725 8.18223 1.45499 7.45996 1.45499Z" fill="black"/>
</svg>
