<svg width="50" height="50" viewBox="0 0 50 50" fill="none" xmlns="http://www.w3.org/2000/svg">
<path d="M43.75 25C43.75 25.4144 43.5854 25.8118 43.2924 26.1049C42.9993 26.3979 42.6019 26.5625 42.1875 26.5625H7.8125C7.3981 26.5625 7.00067 26.3979 6.70765 26.1049C6.41462 25.8118 6.25 25.4144 6.25 25C6.25 24.5856 6.41462 24.1882 6.70765 23.8951C7.00067 23.6021 7.3981 23.4375 7.8125 23.4375H42.1875C42.6019 23.4375 42.9993 23.6021 43.2924 23.8951C43.5854 24.1882 43.75 24.5856 43.75 25ZM7.8125 14.0625H42.1875C42.6019 14.0625 42.9993 13.8979 43.2924 13.6049C43.5854 13.3118 43.75 12.9144 43.75 12.5C43.75 12.0856 43.5854 11.6882 43.2924 11.3951C42.9993 11.1021 42.6019 10.9375 42.1875 10.9375H7.8125C7.3981 10.9375 7.00067 11.1021 6.70765 11.3951C6.41462 11.6882 6.25 12.0856 6.25 12.5C6.25 12.9144 6.41462 13.3118 6.70765 13.6049C7.00067 13.8979 7.3981 14.0625 7.8125 14.0625ZM42.1875 35.9375H7.8125C7.3981 35.9375 7.00067 36.1021 6.70765 36.3951C6.41462 36.6882 6.25 37.0856 6.25 37.5C6.25 37.9144 6.41462 38.3118 6.70765 38.6049C7.00067 38.8979 7.3981 39.0625 7.8125 39.0625H42.1875C42.6019 39.0625 42.9993 38.8979 43.2924 38.6049C43.5854 38.3118 43.75 37.9144 43.75 37.5C43.75 37.0856 43.5854 36.6882 43.2924 36.3951C42.9993 36.1021 42.6019 35.9375 42.1875 35.9375Z" fill="black"/>
</svg>
